HIERARCHY
ROOT pelvis
{
	OFFSET 0.003123 -0.351407 0.012037
	CHANNELS 6 Xposition Yposition Zposition Zrotation Yrotation Xrotation 
	JOINT left_hip
	{
		OFFSET 0.058189 -0.092763 -0.026001
		CHANNELS 3 Zrotation Yrotation Xrotation
		JOINT left_knee
		{
			OFFSET 0.054695 -0.378753 -0.009396
			CHANNELS 3 Zrotation Yrotation Xrotation
			JOINT left_ankle
			{
				OFFSET -0.043453 -0.403059 -0.031876
				CHANNELS 3 Zrotation Yrotation Xrotation
				JOINT left_foot
				{
					OFFSET 0.047257 -0.057997 0.118216
					CHANNELS 3 Zrotation Yrotation Xrotation
					End Site
					{
						OFFSET 0.000000 0.000000 0.000000
					}
				}
			}
		}
	}
	JOINT right_hip
	{
		OFFSET -0.063267 -0.103908 -0.021250
		CHANNELS 3 Zrotation Yrotation Xrotation
		JOINT right_knee
		{
			OFFSET -0.044210 -0.362380 -0.016824
			CHANNELS 3 Zrotation Yrotation Xrotation
			JOINT right_ankle
			{
				OFFSET 0.015417 -0.410728 -0.020192
				CHANNELS 3 Zrotation Yrotation Xrotation
				JOINT right_foot
				{
					OFFSET -0.038812 -0.058328 0.119049
					CHANNELS 3 Zrotation Yrotation Xrotation
					End Site
					{
						OFFSET 0.000000 0.000000 0.000000
					}
				}
			}
		}
	}
	JOINT spine_1
	{
		OFFSET -0.002763 0.109891 -0.027618
		CHANNELS 3 Zrotation Yrotation Xrotation
		JOINT spine_2
		{
			OFFSET 0.009448 0.131853 -0.005940
			CHANNELS 3 Zrotation Yrotation Xrotation
			JOINT spine_3
			{
				OFFSET -0.011330 0.052235 0.028447
				CHANNELS 3 Zrotation Yrotation Xrotation
				JOINT neck
				{
					OFFSET -0.012164 0.165167 -0.031615
					CHANNELS 3 Zrotation Yrotation Xrotation
					JOINT head
					{
						OFFSET 0.024783 0.160452 0.020737
						CHANNELS 3 Zrotation Yrotation Xrotation
						End Site
						{
							OFFSET 0.000000 0.000000 0.000000
						}
					}
				}
				JOINT left_collar
				{
					OFFSET 0.046364 0.084944 -0.007220
					CHANNELS 3 Zrotation Yrotation Xrotation
					JOINT left_shoulder
					{
						OFFSET 0.119239 0.057728 -0.015461
						CHANNELS 3 Zrotation Yrotation Xrotation
						JOINT left_elbow
						{
							OFFSET 0.254123 -0.072151 -0.042459
							CHANNELS 3 Zrotation Yrotation Xrotation
							JOINT left_wrist
							{
								OFFSET 0.251987 0.023221 -0.002472
								CHANNELS 3 Zrotation Yrotation Xrotation
								JOINT left_index_1
								{
									OFFSET 0.101902 -0.008688 0.019351
									CHANNELS 3 Zrotation Yrotation Xrotation
									JOINT left_index_2
									{
										OFFSET 0.030149 -0.011154 0.001151
										CHANNELS 3 Zrotation Yrotation Xrotation
										JOINT left_index_3
										{
											OFFSET 0.006504 -0.021577 -0.002433
											CHANNELS 3 Zrotation Yrotation Xrotation
											End Site
											{
												OFFSET 0.000000 0.000000 0.000000
											}
										}
									}
								}
								JOINT left_middle_1
								{
									OFFSET 0.109398 -0.006328 -0.003981
									CHANNELS 3 Zrotation Yrotation Xrotation
									JOINT left_middle_2
									{
										OFFSET 0.026472 -0.015218 -0.004641
										CHANNELS 3 Zrotation Yrotation Xrotation
										JOINT left_middle_3
										{
											OFFSET 0.005022 -0.023347 -0.001911
											CHANNELS 3 Zrotation Yrotation Xrotation
											End Site
											{
												OFFSET 0.000000 0.000000 0.000000
											}
										}
									}
								}
								JOINT left_pinky_1
								{
									OFFSET 0.084047 -0.014539 -0.043750
									CHANNELS 3 Zrotation Yrotation Xrotation
									JOINT left_pinky_2
									{
										OFFSET 0.012124 -0.014448 -0.005375
										CHANNELS 3 Zrotation Yrotation Xrotation
										JOINT left_pinky_3
										{
											OFFSET 0.003798 -0.018853 0.000167
											CHANNELS 3 Zrotation Yrotation Xrotation
											End Site
											{
												OFFSET 0.000000 0.000000 0.000000
											}
										}
									}
								}
								JOINT left_ring_1
								{
									OFFSET 0.097444 -0.009268 -0.027345
									CHANNELS 3 Zrotation Yrotation Xrotation
									JOINT left_ring_2
									{
										OFFSET 0.023561 -0.016057 -0.001895
										CHANNELS 3 Zrotation Yrotation Xrotation
										JOINT left_ring_3
										{
											OFFSET 0.004257 -0.023548 0.000814
											CHANNELS 3 Zrotation Yrotation Xrotation
											End Site
											{
												OFFSET 0.000000 0.000000 0.000000
											}
										}
									}
								}
								JOINT left_thumb_1
								{
									OFFSET 0.040636 -0.017977 0.025611
									CHANNELS 3 Zrotation Yrotation Xrotation
									JOINT left_thumb_2
									{
										OFFSET 0.021637 -0.017639 0.011623
										CHANNELS 3 Zrotation Yrotation Xrotation
										JOINT left_thumb_3
										{
											OFFSET 0.024002 -0.008356 0.006548
											CHANNELS 3 Zrotation Yrotation Xrotation
											End Site
											{
												OFFSET 0.000000 0.000000 0.000000
											}
										}
									}
								}
							}
						}
					}
				}
				JOINT right_collar
				{
					OFFSET -0.047695 0.084339 -0.013400
					CHANNELS 3 Zrotation Yrotation Xrotation
					JOINT right_shoulder
					{
						OFFSET -0.102578 0.053524 -0.012669
						CHANNELS 3 Zrotation Yrotation Xrotation
						JOINT right_elbow
						{
							OFFSET -0.271150 -0.036492 -0.026467
							CHANNELS 3 Zrotation Yrotation Xrotation
							JOINT right_wrist
							{
								OFFSET -0.249267 -0.004533 -0.015325
								CHANNELS 3 Zrotation Yrotation Xrotation
								JOINT right_index_1
								{
									OFFSET -0.099881 -0.011783 0.019600
									CHANNELS 3 Zrotation Yrotation Xrotation
									JOINT right_index_2
									{
										OFFSET -0.030148 -0.011154 0.001151
										CHANNELS 3 Zrotation Yrotation Xrotation
										JOINT right_index_3
										{
											OFFSET -0.006505 -0.021577 -0.002432
											CHANNELS 3 Zrotation Yrotation Xrotation
											End Site
											{
												OFFSET 0.000000 0.000000 0.000000
											}
										}
									}
								}
								JOINT right_middle_1
								{
									OFFSET -0.107376 -0.009422 -0.003734
									CHANNELS 3 Zrotation Yrotation Xrotation
									JOINT right_middle_2
									{
										OFFSET -0.026472 -0.015218 -0.004641
										CHANNELS 3 Zrotation Yrotation Xrotation
										JOINT right_middle_3
										{
											OFFSET -0.005022 -0.023347 -0.001911
											CHANNELS 3 Zrotation Yrotation Xrotation
											End Site
											{
												OFFSET 0.000000 0.000000 0.000000
											}
										}
									}
								}
								JOINT right_pinky_1
								{
									OFFSET -0.082027 -0.017634 -0.043503
									CHANNELS 3 Zrotation Yrotation Xrotation
									JOINT right_pinky_2
									{
										OFFSET -0.012123 -0.014448 -0.005374
										CHANNELS 3 Zrotation Yrotation Xrotation
										JOINT right_pinky_3
										{
											OFFSET -0.003798 -0.018852 0.000167
											CHANNELS 3 Zrotation Yrotation Xrotation
											End Site
											{
												OFFSET 0.000000 0.000000 0.000000
											}
										}
									}
								}
								JOINT right_ring_1
								{
									OFFSET -0.095423 -0.012362 -0.027099
									CHANNELS 3 Zrotation Yrotation Xrotation
									JOINT right_ring_2
									{
										OFFSET -0.023561 -0.016057 -0.001895
										CHANNELS 3 Zrotation Yrotation Xrotation
										JOINT right_ring_3
										{
											OFFSET -0.004257 -0.023548 0.000816
											CHANNELS 3 Zrotation Yrotation Xrotation
											End Site
											{
												OFFSET 0.000000 0.000000 0.000000
											}
										}
									}
								}
								JOINT right_thumb_1
								{
									OFFSET -0.038613 -0.021074 0.025861
									CHANNELS 3 Zrotation Yrotation Xrotation
									JOINT right_thumb_2
									{
										OFFSET -0.021636 -0.017639 0.011623
										CHANNELS 3 Zrotation Yrotation Xrotation
										JOINT right_thumb_3
										{
											OFFSET -0.024004 -0.008353 0.006547
											CHANNELS 3 Zrotation Yrotation Xrotation
											End Site
											{
												OFFSET 0.000000 0.000000 0.000000
											}
										}
									}
								}
							}
						}
					}
				}
			}
		}
	}
}
MOTION
Frames: 5
Frame Time: 0.050000
0.015537 0.938039 -0.003372 1.023711 -1.196164 -3.166349 13.546922 -0.604763 -15.768959 -5.954126 -0.781347 23.251315 -2.110832 5.071745 12.661867 0.000000 0.000000 0.000000 -14.033338 0.684913 10.925800 7.255464 -0.681583 13.919252 -3.055698 -9.117148 6.300385 0.000000 0.000000 0.000000 0.814863 -0.825862 11.019428 -7.707918 -1.467833 -19.977610 7.888401 1.386255 25.975580 -2.904495 2.741210 -18.474923 0.000000 0.000000 0.000000 2.648986 -0.641003 0.555612 -56.791173 -43.080551 -0.263696 132.686608 -78.524940 -109.406742 2.575694 0.425167 -14.549252 4.352830 -1.706072 -0.750493 23.748554 -1.682113 -6.591956 0.000000 0.000000 0.000000 5.522499 -5.198298 -2.405998 18.725539 -0.447437 1.277638 0.000000 0.000000 0.000000 14.594099 -8.255668 -8.559513 11.142432 1.395322 7.836371 0.000000 0.000000 0.000000 5.442983 -3.506248 -2.526592 20.482915 1.381262 -1.335328 0.000000 0.000000 0.000000 13.159310 5.994266 -3.240406 -13.728570 -9.334496 0.937572 0.000000 0.000000 0.000000 2.199000 0.812278 0.254433 68.226496 25.748601 4.843260 91.657735 55.751726 53.904674 -1.409101 -3.997890 3.234822 -0.648196 2.159620 -0.855165 -19.616267 2.438232 -1.185097 0.000000 0.000000 0.000000 -4.649463 4.374080 -1.918017 -14.662113 0.985112 3.898952 0.000000 0.000000 0.000000 -16.626962 8.271242 -3.996144 -2.354936 -1.346669 8.051150 0.000000 0.000000 0.000000 -6.399333 2.672608 -1.457317 -13.996339 -0.436894 1.332055 0.000000 0.000000 0.000000 -6.773243 -4.532616 0.540178 11.508503 9.087292 0.960090 0.000000 0.000000 0.000000 
0.015404 0.938039 -0.004692 1.018402 -1.209608 -3.172134 13.708204 -0.579756 -15.582005 -5.943319 -0.767053 22.950011 -2.367152 4.884169 13.008029 0.000000 0.000000 0.000000 -13.794829 0.652055 11.110111 6.916814 -0.621155 13.776218 -2.959131 -8.955759 6.303492 0.000000 0.000000 0.000000 0.684376 -0.819873 11.016812 -7.576361 -1.506381 -19.949364 7.872397 1.439224 25.967334 -2.833745 2.740611 -18.484210 0.000000 0.000000 0.000000 2.733685 -0.588302 0.539755 -57.449764 -43.181175 -0.068475 130.174539 -79.005715 -107.126672 3.555433 -0.081472 -14.839361 3.905580 -1.358045 -0.608647 23.975285 -1.645578 -6.277019 0.000000 0.000000 0.000000 5.370921 -5.014327 -2.292816 18.681433 -0.395306 1.846243 0.000000 0.000000 0.000000 15.189784 -8.434248 -8.714895 7.320247 2.084599 9.937782 0.000000 0.000000 0.000000 5.672895 -3.385096 -2.414966 17.209198 1.366393 0.911721 0.000000 0.000000 0.000000 13.282325 6.438973 -2.941914 -14.494379 -9.756022 1.099704 0.000000 0.000000 0.000000 2.270556 0.852809 0.271701 67.983390 25.124499 4.478596 92.445190 56.014251 54.835094 -1.647024 -3.888316 3.132298 -0.123287 1.880979 -0.716096 -20.674090 2.580834 -1.570087 0.000000 0.000000 0.000000 -4.113637 4.123827 -1.828207 -14.859677 0.999729 3.968750 0.000000 0.000000 0.000000 -17.577483 8.482841 -3.959728 -1.440234 -1.498251 8.572448 0.000000 0.000000 0.000000 -6.047350 2.472982 -1.326940 -13.041665 -0.466755 2.097669 0.000000 0.000000 0.000000 -6.544604 -4.545613 0.660845 11.814311 8.969304 1.085078 0.000000 0.000000 0.000000 
0.014686 0.939006 -0.004692 1.075520 -0.748190 -3.310802 13.762907 -0.602947 -15.473284 -5.966804 -0.785369 22.792077 -2.612223 4.416998 12.781036 0.000000 0.000000 0.000000 -13.519931 0.579883 11.506521 6.769873 -0.608630 13.568358 -3.116300 -9.272601 6.461780 0.000000 0.000000 0.000000 0.622351 -0.830183 11.275318 -7.471114 -1.770308 -20.931537 7.596730 0.683391 27.055962 -2.822377 2.813716 -19.074064 0.000000 0.000000 0.000000 3.056565 -0.086281 0.322887 -58.400520 -42.554158 0.071326 130.914348 -79.313986 -108.045068 3.693068 -0.255799 -14.533470 4.020949 -1.203733 -0.564270 23.823240 -1.698510 -6.538085 0.000000 0.000000 0.000000 3.446497 -3.561258 -1.623183 22.084378 -0.760854 -0.895533 0.000000 0.000000 0.000000 15.310376 -8.807639 -9.256075 7.253109 2.098689 10.081352 0.000000 0.000000 0.000000 3.586339 -2.321320 -1.600574 20.458156 1.346791 -1.679467 0.000000 0.000000 0.000000 14.888713 5.954134 -4.255239 -17.644232 -7.679265 2.661324 0.000000 0.000000 0.000000 2.008345 1.002626 0.369862 68.185650 24.843054 4.172259 93.088509 55.898251 55.316376 -1.444323 -3.634724 3.046912 -0.168277 1.254179 -0.481786 -20.430702 2.676142 -2.584509 0.000000 0.000000 0.000000 -4.235179 3.854899 -1.644150 -14.475451 0.977842 3.668706 0.000000 0.000000 0.000000 -16.844030 8.009354 -3.492945 -1.834962 -1.412402 8.211501 0.000000 0.000000 0.000000 -6.360156 2.229872 -1.126585 -13.247266 -0.439035 1.542872 0.000000 0.000000 0.000000 -5.920574 -4.356056 0.804684 9.754280 7.912681 0.654991 0.000000 0.000000 0.000000 
0.014686 0.938039 -0.004692 1.088638 -0.769480 -3.001624 13.766957 -0.613403 -15.812114 -6.114083 -0.740351 22.790614 -2.500940 4.561488 12.741330 0.000000 0.000000 0.000000 -13.446758 0.576097 11.122560 6.542300 -0.570476 13.603217 -3.179423 -9.385825 6.479050 0.000000 0.000000 0.000000 0.623598 -0.791183 10.745876 -7.369591 -1.757952 -20.744736 7.534865 0.678935 27.832768 -2.796292 2.979854 -20.509417 0.000000 0.000000 0.000000 3.144652 0.693811 -0.030319 -59.751734 -42.554197 0.397214 134.520630 -79.901873 -112.416861 2.705213 0.192862 -13.378719 4.612920 -1.409344 -0.669132 22.702933 -1.801021 -6.950224 0.000000 0.000000 0.000000 6.085219 -5.656263 -2.620585 17.818334 -0.480823 1.166046 0.000000 0.000000 0.000000 15.340541 -9.373491 -10.096906 7.346909 2.043617 10.038423 0.000000 0.000000 0.000000 6.135334 -4.328439 -3.139961 16.764015 1.267547 0.823864 0.000000 0.000000 0.000000 14.167109 5.639502 -4.043871 -14.455017 -8.952764 1.312989 0.000000 0.000000 0.000000 2.075039 0.364031 0.019237 68.294608 24.425524 3.922273 94.460389 55.211964 55.785092 -1.913223 -3.720795 3.183227 0.007493 1.944048 -0.731803 -19.986107 2.503735 -1.356770 0.000000 0.000000 0.000000 -3.552326 4.100156 -1.884747 -15.383999 1.075948 3.934097 0.000000 0.000000 0.000000 -16.045978 8.044864 -3.853906 -2.027763 -1.459573 8.638090 0.000000 0.000000 0.000000 -5.355081 2.556176 -1.422853 -13.475033 -0.468899 2.247043 0.000000 0.000000 0.000000 -5.544855 -4.234261 0.886498 9.536399 8.175445 0.519030 0.000000 0.000000 0.000000 
0.014815 0.939006 -0.003372 0.998119 -1.203551 -2.837960 13.830865 -0.574932 -15.787747 -6.024729 -0.726296 22.644480 -2.073324 5.106581 12.627337 0.000000 0.000000 0.000000 -13.427975 0.603967 10.528835 6.421515 -0.540962 13.940361 -3.069758 -9.235852 6.523370 0.000000 0.000000 0.000000 0.611427 -0.775522 10.464864 -7.500177 -1.479605 -19.744414 7.576166 0.814673 27.084512 -2.683883 3.009512 -20.733126 0.000000 0.000000 0.000000 3.542840 0.945285 -0.110110 -60.600898 -42.076730 0.588401 137.425446 -80.029201 -115.723672 3.059909 0.279978 -14.107119 3.081684 -0.268796 -0.204784 26.538964 -1.932052 -9.110873 0.000000 0.000000 0.000000 5.021371 -4.775712 -2.188054 18.670233 -0.467858 1.587030 0.000000 0.000000 0.000000 15.027444 -8.679251 -9.033584 8.873175 1.775367 9.162367 0.000000 0.000000 0.000000 5.474055 -3.502486 -2.499134 19.766001 1.339127 -0.952827 0.000000 0.000000 0.000000 14.233489 6.164919 -3.662034 -14.835404 -9.266083 1.361870 0.000000 0.000000 0.000000 2.210996 0.502704 0.077070 67.780567 23.680298 3.420331 96.739275 55.328541 57.705482 -1.653331 -3.793734 2.973357 0.218942 1.810800 -0.670304 -20.328801 2.511297 -1.262367 0.000000 0.000000 0.000000 -3.520380 3.972052 -1.812778 -15.584513 1.062661 4.279311 0.000000 0.000000 0.000000 -16.183660 8.008850 -3.772325 -3.958857 -1.329520 8.577930 0.000000 0.000000 0.000000 -5.409162 2.461777 -1.353379 -15.340458 -0.491721 2.101036 0.000000 0.000000 0.000000 -5.967492 -4.633722 1.042513 10.534062 8.553679 0.755931 0.000000 0.000000 0.000000 
